# xmcd CD database file
#
# Track frame offsets:
#	150
#	17684
#	40756
#	57467
#	69918
#	88611
#	105599
#	128881
#	152297
#	177991
#
# Disc length: 2684 seconds
#
# Revision: 0
# Processed by: cddbd v1.4PL0 Copyright (c) Steve Scherf et al.
# Submitted via: CDex 1.50
#
DISCID=750a7a0a
DTITLE=Torkom Saraydarian - Dance of the Zodiac
DYEAR=1992
DGENRE=New Age
TTITLE0=Wind Horses
TTITLE1=Metamorphosis
TTITLE2=Joy Joy
TTITLE3=Flowering Trees
TTITLE4=Migrating Birds
TTITLE5=Contemplation on Himalayas
TTITLE6=Hiawatha and the Tree of Peace
TTITLE7=Colorado Rapids
TTITLE8=I Will Attain
TTITLE9=Dance of the Zodiac
EXTD=YEAR: 1992
EXTT0=
EXTT1=
EXTT2=
EXTT3=
EXTT4=
EXTT5=
EXTT6=
EXTT7=
EXTT8=
EXTT9=
PLAYORDER=
